
<svg width="134px" height="20px" viewBox="0 0 134 20" version="1.1" xmlns="http://www.w3.org/2000/svg" xmlns:xlink="http://www.w3.org/1999/xlink">
    <!-- Generator: Sketch 46.2 (44496) - http://www.bohemiancoding.com/sketch -->
    <desc>Created with Sketch.</desc>
    <defs></defs>
    <g id="Page-1" stroke="none" stroke-width="1" fill="none" fill-rule="evenodd">
        <g id="Non-interactive-rating-component-(read-only)" transform="translate(-140.000000, -25.000000)">
            <g id="Small-stars" transform="translate(140.000000, 25.000000)">
                <g id="Stars-Copy">
                    <polygon id="Star-selected" fill="#4A90E2" points="10.4994478 16.3070913 4.01043219 19.6665369 5.2497239 12.551117 -1.0658141e-14 7.51194866 7.25493999 6.47382289 10.4994478 0 13.7439556 6.47382289 20.9988956 7.51194866 15.7491717 12.551117 16.9884634 19.6665369"></polygon>
                    <polygon id="Star-selected" fill="#4A90E2" points="38.6699023 16.3070913 32.1808867 19.6665369 33.4201784 12.551117 28.1704545 7.51194866 35.4253945 6.47382289 38.6699023 0 41.9144101 6.47382289 49.1693501 7.51194866 43.9196262 12.551117 45.1589179 19.6665369"></polygon>
                    <polygon id="Star" fill="#E3E6E9" points="66.8403569 16.3070913 60.3513413 19.6665369 61.590633 12.551117 56.3409091 7.51194866 63.5958491 6.47382289 66.8403569 0 70.0848647 6.47382289 77.3398047 7.51194866 72.0900808 12.551117 73.3293725 19.6665369"></polygon>
                    <polygon id="Star" fill="#E3E6E9" points="95.0108114 16.3070913 88.5217958 19.6665369 89.7610875 12.551117 84.5113636 7.51194866 91.7663036 6.47382289 95.0108114 0 98.2553192 6.47382289 105.510259 7.51194866 100.260535 12.551117 101.499827 19.6665369"></polygon>
                    <polygon id="Star" fill="#E3E6E9" points="123.181266 16.3070913 116.69225 19.6665369 117.931542 12.551117 112.681818 7.51194866 119.936758 6.47382289 123.181266 0 126.425774 6.47382289 133.680714 7.51194866 128.43099 12.551117 129.670282 19.6665369"></polygon>
                </g>
            </g>
        </g>
    </g>
</svg>